# Blender 4.0.2
# www.blender.org
mtllib doorl.mtl
o door009_Material_#25_0
v 1.610803 0.124409 0.044949
v 1.610813 0.124409 0.042734
v 1.610813 -0.027541 0.042734
v 1.610803 -0.027541 0.044949
v 1.679593 -0.027541 0.043042
v 1.679583 -0.027541 0.045257
v 1.610803 -0.027541 0.044949
v 1.610813 -0.027541 0.042734
v 1.679583 0.124409 0.045257
v 1.679593 0.124409 0.043042
v 1.610813 0.124409 0.042734
v 1.610803 0.124409 0.044949
v 1.679593 0.124409 0.043042
v 1.679583 0.124409 0.045257
v 1.679583 -0.027541 0.045257
v 1.679593 -0.027541 0.043042
v 1.679593 0.124409 0.043042
v 1.679593 -0.027541 0.043042
v 1.610813 -0.027541 0.042734
v 1.610813 0.124409 0.042734
v 1.679583 -0.027541 0.045257
v 1.679583 0.124409 0.045257
v 1.610803 0.124409 0.044949
v 1.610803 -0.027541 0.044949
vn -1.0000 -0.0000 -0.0045
vn -0.0000 -1.0000 -0.0000
vn -0.0000 1.0000 -0.0000
vn 1.0000 -0.0000 0.0045
vn 0.0045 -0.0000 -1.0000
vn -0.0045 -0.0000 1.0000
vt 0.409300 0.442900
vt 0.411900 0.442900
vt 0.411900 0.558500
vt 0.409300 0.558500
vt 0.219800 0.719300
vt 0.219800 0.714200
vt 0.170500 0.714200
vt 0.170500 0.719300
vt 0.132500 0.153800
vt 0.132500 0.158900
vt 0.083200 0.158900
vt 0.083200 0.153800
vt 0.545100 0.300500
vt 0.542600 0.300500
vt 0.542600 0.416100
vt 0.545100 0.416100
vt 0.492000 0.657300
vt 0.492000 0.742300
vt 0.576300 0.742300
vt 0.576300 0.657300
vt 0.492000 0.829500
vt 0.492000 0.744600
vt 0.576300 0.744600
vt 0.576300 0.829500
s 0
usemtl Material_25
f 1/1/1 2/2/1 3/3/1
f 1/1/1 3/3/1 4/4/1
f 5/5/2 6/6/2 7/7/2
f 5/5/2 7/7/2 8/8/2
f 9/9/3 10/10/3 11/11/3
f 9/9/3 11/11/3 12/12/3
f 13/13/4 14/14/4 15/15/4
f 13/13/4 15/15/4 16/16/4
f 17/17/5 18/18/5 19/19/5
f 17/17/5 19/19/5 20/20/5
f 21/21/6 22/22/6 23/23/6
f 21/21/6 23/23/6 24/24/6
