# Blender 4.0.2
# www.blender.org
mtllib lamps.mtl
o Lamp_Post_01
v 1.840773 0.151984 0.364321
v 1.840773 0.151984 0.369399
v 1.845170 0.151984 0.366860
v 1.849567 0.151984 0.369399
v 1.849567 0.151984 0.364321
v 1.845170 0.151984 0.371938
v 1.845170 0.151984 0.361783
v 1.838236 0.031972 0.370863
v 1.838236 -0.028034 0.370863
v 1.845170 0.031972 0.374867
v 1.845170 -0.028034 0.374867
v 1.845170 -0.054735 0.356864
v 1.836513 -0.073164 0.361862
v 1.836513 -0.054735 0.361862
v 1.845170 -0.073164 0.356864
v 1.852104 0.031972 0.370863
v 1.852104 -0.028034 0.370863
v 1.845170 -0.054735 0.376857
v 1.853827 -0.073164 0.371858
v 1.853827 -0.054735 0.371858
v 1.845170 -0.073164 0.376857
v 1.852104 0.031972 0.362857
v 1.852104 -0.028034 0.362857
v 1.845170 0.031972 0.358854
v 1.845170 -0.028034 0.358854
v 1.836513 -0.054735 0.371858
v 1.836513 -0.073164 0.371858
v 1.838236 0.031972 0.362857
v 1.838236 -0.028034 0.362857
v 1.853827 -0.054735 0.361862
v 1.853827 -0.073164 0.361862
v 1.845170 -0.051326 0.356864
v 1.837381 -0.053030 0.362363
v 1.836513 -0.051326 0.361862
v 1.845170 -0.053030 0.357865
v 1.836513 -0.051326 0.371858
v 1.837381 -0.053030 0.371358
v 1.845170 -0.051326 0.376857
v 1.845170 -0.053030 0.375855
v 1.852960 -0.053030 0.371358
v 1.853827 -0.051326 0.371858
v 1.853827 -0.051326 0.361862
v 1.852960 -0.053030 0.362363
v 1.858865 0.178507 0.380555
v 1.840974 0.183730 0.371056
v 1.831476 0.178507 0.380555
v 1.849366 0.183730 0.371056
v 1.839987 0.151984 0.372044
v 1.850354 0.151984 0.372044
v 1.831476 0.178507 0.353166
v 1.840974 0.183730 0.362664
v 1.839987 0.151984 0.361676
v 1.849366 0.183730 0.362664
v 1.858865 0.178507 0.353166
v 1.850354 0.151984 0.361676
v 1.838236 0.091978 0.370863
v 1.845170 0.091978 0.374867
v 1.852104 0.091978 0.370863
v 1.852104 0.091978 0.362857
v 1.845170 0.091978 0.358854
v 1.838236 0.091978 0.362857
v 1.845170 -0.073164 0.366860
vn -0.0000 1.0000 -0.0000
vn -0.5029 -0.0000 0.8643
vn -0.4970 -0.0000 0.8677
vn -0.4970 -0.0000 -0.8678
vn -0.4970 -0.0000 -0.8677
vn 0.5029 -0.0000 0.8643
vn 0.4970 -0.0000 0.8677
vn 0.5029 -0.0000 -0.8643
vn 0.4970 -0.0000 -0.8677
vn -0.5029 -0.0000 -0.8643
vn -1.0000 -0.0000 -0.0000
vn 1.0000 -0.0000 -0.0000
vn -0.4476 -0.4554 -0.7696
vn -0.4476 0.4554 -0.7696
vn -0.8897 -0.4566 -0.0000
vn -0.8897 0.4566 -0.0000
vn -0.4476 -0.4554 0.7696
vn -0.4476 0.4554 0.7696
vn 0.4476 -0.4554 0.7696
vn 0.4476 0.4554 0.7696
vn 0.8897 -0.4566 -0.0000
vn 0.8897 0.4566 -0.0000
vn 0.4476 -0.4554 -0.7696
vn 0.4476 0.4554 -0.7696
vn -0.4958 0.0708 -0.8656
vn -0.4957 0.0708 -0.8656
vn 0.4957 0.0708 -0.8656
vn 0.9975 0.0707 -0.0000
vn 0.4957 0.0708 0.8656
vn 0.4958 0.0708 0.8656
vn -0.4958 0.0708 0.8656
vn -0.4957 0.0708 0.8656
vn -0.9975 0.0707 -0.0000
vn -0.0000 0.8763 0.4818
vn -0.0000 -0.3067 0.9518
vn -0.4818 0.8763 -0.0000
vn -0.9518 -0.3067 -0.0000
vn -0.0000 0.8763 -0.4818
vn -0.0000 -0.3067 -0.9518
vn 0.4818 0.8763 -0.0000
vn 0.9518 -0.3067 -0.0000
vn 0.9518 -0.3068 -0.0000
vn -0.0000 -1.0000 -0.0000
vn -0.4966 0.0394 0.8671
vn 0.4966 0.0394 0.8671
vn 0.4966 0.0394 -0.8671
vn -0.4966 0.0394 -0.8671
vn 0.9992 0.0394 -0.0000
vn -0.9992 0.0394 -0.0000
vt 0.039062 0.203125
vt 0.039062 0.156250
vt 0.078125 0.179688
vt 0.125000 0.156250
vt 0.125000 0.203125
vt 0.078125 0.125000
vt 0.078125 0.234375
vt 0.367188 1.000000
vt 0.367188 0.000000
vt 0.195312 1.000000
vt 0.195312 0.000000
vt 0.171875 0.309570
vt 0.000000 0.000000
vt 0.000000 0.309570
vt 0.171875 0.000000
vt 0.187500 1.000000
vt 0.187500 0.000000
vt 0.359375 1.000000
vt 0.359375 0.000000
vt 0.335938 1.000000
vt 0.335938 0.000000
vt 0.507812 1.000000
vt 0.507812 0.000000
vt 0.390625 1.000000
vt 0.390625 0.000000
vt 0.218750 1.000000
vt 0.218750 0.000000
vt 0.351562 1.000000
vt 0.351562 0.000000
vt 0.523438 1.000000
vt 0.523438 0.000000
vt 0.171875 0.366699
vt 0.000000 0.337891
vt 0.000000 0.366699
vt 0.171875 0.337891
vt 0.000000 0.757690
vt 0.171875 0.757690
vt 1.000000 0.914062
vt 0.796875 1.000000
vt 0.695312 0.914062
vt 0.890625 1.000000
vt 0.789062 0.617188
vt 0.906250 0.617188
vt 0.695312 1.000000
vt 0.765625 0.937500
vt 0.695312 0.937500
vt 0.765625 1.000000
vt 0.789062 0.710938
vt 0.695312 0.710938
vt 0.695312 0.617188
vt 0.039062 0.179688
vt 0.054688 0.140625
vt 0.109375 0.140625
vt 0.054688 0.218750
vt 0.125000 0.179688
vt 0.109375 0.218750
s 1
usemtl Lamppost
f 1/1/1 2/2/1 3/3/1
f 4/4/1 5/5/1 3/3/1
f 6/6/1 4/4/1 3/3/1
f 7/7/1 1/1/1 3/3/1
f 5/5/1 7/7/1 3/3/1
f 2/2/1 6/6/1 3/3/1
f 8/8/2 9/9/3 10/10/3
f 10/10/3 9/9/3 11/11/3
f 12/12/4 13/13/5 14/14/5
f 13/13/5 12/12/4 15/15/4
f 10/16/6 11/17/7 16/18/7
f 16/18/7 11/17/7 17/19/7
f 18/14/6 19/15/6 20/12/6
f 19/15/6 18/14/6 21/13/6
f 22/20/8 23/21/9 24/22/9
f 24/22/9 23/21/9 25/23/9
f 26/12/3 21/13/3 18/14/3
f 21/13/3 26/12/3 27/15/3
f 24/24/10 25/25/5 28/26/5
f 28/26/5 25/25/5 29/27/5
f 14/14/11 27/15/11 26/12/11
f 27/15/11 14/14/11 13/13/11
f 16/18/12 17/19/12 22/16/12
f 22/16/12 17/19/12 23/17/12
f 28/28/11 29/29/11 8/30/11
f 8/30/11 29/29/11 9/31/11
f 30/14/8 15/15/8 12/12/8
f 15/15/8 30/14/8 31/13/8
f 20/12/12 31/13/12 30/14/12
f 31/13/12 20/12/12 19/15/12
f 32/32/13 33/33/13 34/34/13
f 33/33/13 32/32/13 35/35/13
f 33/33/14 35/35/14 12/12/14
f 33/33/14 12/12/14 14/14/14
f 36/32/15 34/34/15 33/33/15
f 36/32/15 33/33/15 37/35/15
f 14/14/16 37/35/16 33/33/16
f 37/35/16 14/14/16 26/12/16
f 38/34/17 36/32/17 37/35/17
f 38/34/17 37/35/17 39/33/17
f 37/35/18 18/14/18 39/33/18
f 18/14/18 37/35/18 26/12/18
f 38/34/19 40/35/19 41/32/19
f 40/35/19 38/34/19 39/33/19
f 40/35/20 39/33/20 18/14/20
f 40/35/20 18/14/20 20/12/20
f 42/34/21 41/32/21 40/35/21
f 42/34/21 40/35/21 43/33/21
f 20/12/22 43/33/22 40/35/22
f 43/33/22 20/12/22 30/14/22
f 32/32/23 42/34/23 43/33/23
f 32/32/23 43/33/23 35/35/23
f 43/33/24 12/12/24 35/35/24
f 12/12/24 43/33/24 30/14/24
f 32/32/25 29/36/26 25/37/26
f 29/36/26 32/32/25 34/34/26
f 23/36/27 32/32/27 25/37/27
f 32/32/27 23/36/27 42/34/27
f 17/37/28 42/34/28 23/36/28
f 42/34/28 17/37/28 41/32/28
f 38/34/29 17/37/30 11/36/30
f 17/37/30 38/34/29 41/32/30
f 9/37/31 38/34/32 11/36/31
f 38/34/32 9/37/31 36/32/31
f 29/36/33 36/32/33 9/37/33
f 36/32/33 29/36/33 34/34/33
f 44/38/34 45/39/34 46/40/34
f 45/39/34 44/38/34 47/41/34
f 44/38/35 48/42/35 49/43/35
f 48/42/35 44/38/35 46/40/35
f 50/40/36 46/38/36 51/39/36
f 51/39/36 46/38/36 45/41/36
f 46/38/37 52/42/37 48/43/37
f 52/42/37 46/38/37 50/40/37
f 53/39/38 50/38/38 51/41/38
f 54/40/38 50/38/38 53/39/38
f 50/38/39 55/42/39 52/43/39
f 55/42/39 50/38/39 54/40/39
f 53/41/40 44/40/40 54/38/40
f 44/40/40 53/41/40 47/39/40
f 44/40/41 55/43/41 54/38/42
f 55/43/41 44/40/41 49/42/41
f 53/44/1 45/45/1 47/46/1
f 45/45/1 53/44/1 51/47/1
f 48/48/43 52/49/43 49/42/43
f 49/42/43 52/49/43 55/50/43
f 56/8/2 8/9/2 57/10/2
f 57/10/2 8/9/2 10/11/3
f 57/16/6 10/17/6 58/18/6
f 58/18/6 10/17/6 16/19/7
f 59/20/8 22/21/8 60/22/8
f 60/22/8 22/21/8 24/23/9
f 60/24/10 24/25/10 61/26/10
f 61/26/10 24/25/10 28/27/5
f 58/18/12 16/19/12 59/16/12
f 59/16/12 16/19/12 22/17/12
f 61/28/11 28/29/11 56/30/11
f 56/30/11 28/29/11 8/31/11
f 2/8/44 57/11/44 6/10/44
f 57/11/44 2/8/44 56/9/44
f 6/16/45 57/17/45 4/18/45
f 57/17/45 58/19/45 4/18/45
f 5/20/46 60/23/46 7/22/46
f 60/23/46 5/20/46 59/21/46
f 7/24/47 60/25/47 1/26/47
f 60/25/47 61/27/47 1/26/47
f 4/18/48 58/19/48 5/16/48
f 5/16/48 58/19/48 59/17/48
f 1/28/49 61/29/49 2/30/49
f 2/30/49 61/29/49 56/31/49
f 62/3/43 15/51/43 31/52/43
f 62/3/43 31/52/43 19/53/43
f 62/3/43 13/54/43 15/51/43
f 62/3/43 19/53/43 21/55/43
f 62/3/43 27/56/43 13/54/43
f 62/3/43 21/55/43 27/56/43
o Lamp_Post_01.001
v 1.503271 0.147268 0.340418
v 1.503271 0.147268 0.345495
v 1.507668 0.147268 0.342956
v 1.512065 0.147268 0.345495
v 1.512065 0.147268 0.340418
v 1.507668 0.147268 0.348034
v 1.507668 0.147268 0.337879
v 1.500734 0.027255 0.346960
v 1.500734 -0.032751 0.346960
v 1.507668 0.027255 0.350963
v 1.507668 -0.032751 0.350963
v 1.507668 -0.059451 0.332960
v 1.499011 -0.077880 0.337958
v 1.499011 -0.059451 0.337958
v 1.507668 -0.077880 0.332960
v 1.514602 0.027255 0.346960
v 1.514602 -0.032751 0.346960
v 1.507668 -0.059451 0.352953
v 1.516325 -0.077880 0.347955
v 1.516325 -0.059451 0.347955
v 1.507668 -0.077880 0.352953
v 1.514602 0.027255 0.338953
v 1.514602 -0.032751 0.338953
v 1.507668 0.027255 0.334950
v 1.507668 -0.032751 0.334950
v 1.499011 -0.059451 0.347955
v 1.499011 -0.077880 0.347955
v 1.500734 0.027255 0.338953
v 1.500734 -0.032751 0.338953
v 1.516325 -0.059451 0.337958
v 1.516325 -0.077880 0.337958
v 1.507668 -0.056042 0.332960
v 1.499879 -0.057747 0.338459
v 1.499011 -0.056042 0.337958
v 1.507668 -0.057747 0.333962
v 1.499011 -0.056042 0.347955
v 1.499879 -0.057747 0.347454
v 1.507668 -0.056042 0.352953
v 1.507668 -0.057747 0.351951
v 1.515458 -0.057747 0.347454
v 1.516325 -0.056042 0.347955
v 1.516325 -0.056042 0.337958
v 1.515458 -0.057747 0.338459
v 1.521363 0.173791 0.356651
v 1.503472 0.179014 0.347153
v 1.493974 0.173791 0.356651
v 1.511864 0.179014 0.347153
v 1.502484 0.147268 0.348140
v 1.512852 0.147268 0.348140
v 1.493974 0.173791 0.329262
v 1.503472 0.179014 0.338760
v 1.502484 0.147268 0.337773
v 1.511864 0.179014 0.338760
v 1.521363 0.173791 0.329262
v 1.512852 0.147268 0.337773
v 1.500734 0.087261 0.346960
v 1.507668 0.087261 0.350963
v 1.514602 0.087261 0.346960
v 1.514602 0.087261 0.338953
v 1.507668 0.087261 0.334950
v 1.500734 0.087261 0.338953
v 1.507668 -0.077880 0.342956
vn -0.0000 1.0000 -0.0000
vn -0.5029 -0.0000 0.8643
vn -0.4970 -0.0000 0.8677
vn -0.4970 -0.0000 -0.8678
vn -0.4970 -0.0000 -0.8677
vn 0.5029 -0.0000 0.8643
vn 0.4970 -0.0000 0.8677
vn 0.5029 -0.0000 -0.8643
vn 0.4970 -0.0000 -0.8677
vn -0.5029 -0.0000 -0.8643
vn -1.0000 -0.0000 -0.0000
vn 1.0000 -0.0000 -0.0000
vn -0.4476 -0.4554 -0.7696
vn -0.4476 0.4554 -0.7696
vn -0.8897 -0.4566 -0.0000
vn -0.8897 0.4566 -0.0000
vn -0.4476 -0.4554 0.7696
vn -0.4476 0.4554 0.7696
vn 0.4476 -0.4554 0.7696
vn 0.4476 0.4554 0.7696
vn 0.8897 -0.4566 -0.0000
vn 0.8897 0.4566 -0.0000
vn 0.4476 -0.4554 -0.7696
vn 0.4476 0.4554 -0.7696
vn -0.4958 0.0708 -0.8656
vn -0.4957 0.0708 -0.8656
vn 0.4957 0.0708 -0.8656
vn 0.9975 0.0707 -0.0000
vn 0.4957 0.0708 0.8656
vn 0.4958 0.0708 0.8656
vn -0.4958 0.0708 0.8656
vn -0.4957 0.0708 0.8656
vn -0.9975 0.0707 -0.0000
vn -0.0000 0.8763 0.4818
vn -0.0000 -0.3067 0.9518
vn -0.4818 0.8763 -0.0000
vn -0.9518 -0.3067 -0.0000
vn -0.0000 0.8763 -0.4818
vn -0.0000 -0.3067 -0.9518
vn 0.4818 0.8763 -0.0000
vn 0.9518 -0.3067 -0.0000
vn 0.9518 -0.3068 -0.0000
vn -0.0000 -1.0000 -0.0000
vn -0.4966 0.0394 0.8671
vn 0.4966 0.0394 0.8671
vn 0.4966 0.0394 -0.8671
vn -0.4966 0.0394 -0.8671
vn 0.9992 0.0394 -0.0000
vn -0.9992 0.0394 -0.0000
vt 0.039062 0.203125
vt 0.039062 0.156250
vt 0.078125 0.179688
vt 0.125000 0.156250
vt 0.125000 0.203125
vt 0.078125 0.125000
vt 0.078125 0.234375
vt 0.367188 1.000000
vt 0.367188 0.000000
vt 0.195312 1.000000
vt 0.195312 0.000000
vt 0.171875 0.309570
vt 0.000000 0.000000
vt 0.000000 0.309570
vt 0.171875 0.000000
vt 0.187500 1.000000
vt 0.187500 0.000000
vt 0.359375 1.000000
vt 0.359375 0.000000
vt 0.335938 1.000000
vt 0.335938 0.000000
vt 0.507812 1.000000
vt 0.507812 0.000000
vt 0.390625 1.000000
vt 0.390625 0.000000
vt 0.218750 1.000000
vt 0.218750 0.000000
vt 0.351562 1.000000
vt 0.351562 0.000000
vt 0.523438 1.000000
vt 0.523438 0.000000
vt 0.171875 0.366699
vt 0.000000 0.337891
vt 0.000000 0.366699
vt 0.171875 0.337891
vt 0.000000 0.757690
vt 0.171875 0.757690
vt 1.000000 0.914062
vt 0.796875 1.000000
vt 0.695312 0.914062
vt 0.890625 1.000000
vt 0.789062 0.617188
vt 0.906250 0.617188
vt 0.695312 1.000000
vt 0.765625 0.937500
vt 0.695312 0.937500
vt 0.765625 1.000000
vt 0.789062 0.710938
vt 0.695312 0.710938
vt 0.695312 0.617188
vt 0.039062 0.179688
vt 0.054688 0.140625
vt 0.109375 0.140625
vt 0.054688 0.218750
vt 0.125000 0.179688
vt 0.109375 0.218750
s 1
usemtl Lamppost
f 63/57/50 64/58/50 65/59/50
f 66/60/50 67/61/50 65/59/50
f 68/62/50 66/60/50 65/59/50
f 69/63/50 63/57/50 65/59/50
f 67/61/50 69/63/50 65/59/50
f 64/58/50 68/62/50 65/59/50
f 70/64/51 71/65/52 72/66/52
f 72/66/52 71/65/52 73/67/52
f 74/68/53 75/69/54 76/70/54
f 75/69/54 74/68/53 77/71/53
f 72/72/55 73/73/56 78/74/56
f 78/74/56 73/73/56 79/75/56
f 80/70/55 81/71/55 82/68/55
f 81/71/55 80/70/55 83/69/55
f 84/76/57 85/77/58 86/78/58
f 86/78/58 85/77/58 87/79/58
f 88/68/52 83/69/52 80/70/52
f 83/69/52 88/68/52 89/71/52
f 86/80/59 87/81/54 90/82/54
f 90/82/54 87/81/54 91/83/54
f 76/70/60 89/71/60 88/68/60
f 89/71/60 76/70/60 75/69/60
f 78/74/61 79/75/61 84/72/61
f 84/72/61 79/75/61 85/73/61
f 90/84/60 91/85/60 70/86/60
f 70/86/60 91/85/60 71/87/60
f 92/70/57 77/71/57 74/68/57
f 77/71/57 92/70/57 93/69/57
f 82/68/61 93/69/61 92/70/61
f 93/69/61 82/68/61 81/71/61
f 94/88/62 95/89/62 96/90/62
f 95/89/62 94/88/62 97/91/62
f 95/89/63 97/91/63 74/68/63
f 95/89/63 74/68/63 76/70/63
f 98/88/64 96/90/64 95/89/64
f 98/88/64 95/89/64 99/91/64
f 76/70/65 99/91/65 95/89/65
f 99/91/65 76/70/65 88/68/65
f 100/90/66 98/88/66 99/91/66
f 100/90/66 99/91/66 101/89/66
f 99/91/67 80/70/67 101/89/67
f 80/70/67 99/91/67 88/68/67
f 100/90/68 102/91/68 103/88/68
f 102/91/68 100/90/68 101/89/68
f 102/91/69 101/89/69 80/70/69
f 102/91/69 80/70/69 82/68/69
f 104/90/70 103/88/70 102/91/70
f 104/90/70 102/91/70 105/89/70
f 82/68/71 105/89/71 102/91/71
f 105/89/71 82/68/71 92/70/71
f 94/88/72 104/90/72 105/89/72
f 94/88/72 105/89/72 97/91/72
f 105/89/73 74/68/73 97/91/73
f 74/68/73 105/89/73 92/70/73
f 94/88/74 91/92/75 87/93/75
f 91/92/75 94/88/74 96/90/75
f 85/92/76 94/88/76 87/93/76
f 94/88/76 85/92/76 104/90/76
f 79/93/77 104/90/77 85/92/77
f 104/90/77 79/93/77 103/88/77
f 100/90/78 79/93/79 73/92/79
f 79/93/79 100/90/78 103/88/79
f 71/93/80 100/90/81 73/92/80
f 100/90/81 71/93/80 98/88/80
f 91/92/82 98/88/82 71/93/82
f 98/88/82 91/92/82 96/90/82
f 106/94/83 107/95/83 108/96/83
f 107/95/83 106/94/83 109/97/83
f 106/94/84 110/98/84 111/99/84
f 110/98/84 106/94/84 108/96/84
f 112/96/85 108/94/85 113/95/85
f 113/95/85 108/94/85 107/97/85
f 108/94/86 114/98/86 110/99/86
f 114/98/86 108/94/86 112/96/86
f 115/95/87 112/94/87 113/97/87
f 116/96/87 112/94/87 115/95/87
f 112/94/88 117/98/88 114/99/88
f 117/98/88 112/94/88 116/96/88
f 115/97/89 106/96/89 116/94/89
f 106/96/89 115/97/89 109/95/89
f 106/96/90 117/99/90 116/94/91
f 117/99/90 106/96/90 111/98/90
f 115/100/50 107/101/50 109/102/50
f 107/101/50 115/100/50 113/103/50
f 110/104/92 114/105/92 111/98/92
f 111/98/92 114/105/92 117/106/92
f 118/64/51 70/65/51 119/66/51
f 119/66/51 70/65/51 72/67/52
f 119/72/55 72/73/55 120/74/55
f 120/74/55 72/73/55 78/75/56
f 121/76/57 84/77/57 122/78/57
f 122/78/57 84/77/57 86/79/58
f 122/80/59 86/81/59 123/82/59
f 123/82/59 86/81/59 90/83/54
f 120/74/61 78/75/61 121/72/61
f 121/72/61 78/75/61 84/73/61
f 123/84/60 90/85/60 118/86/60
f 118/86/60 90/85/60 70/87/60
f 64/64/93 119/67/93 68/66/93
f 119/67/93 64/64/93 118/65/93
f 68/72/94 119/73/94 66/74/94
f 119/73/94 120/75/94 66/74/94
f 67/76/95 122/79/95 69/78/95
f 122/79/95 67/76/95 121/77/95
f 69/80/96 122/81/96 63/82/96
f 122/81/96 123/83/96 63/82/96
f 66/74/97 120/75/97 67/72/97
f 67/72/97 120/75/97 121/73/97
f 63/84/98 123/85/98 64/86/98
f 64/86/98 123/85/98 118/87/98
f 124/59/92 77/107/92 93/108/92
f 124/59/92 93/108/92 81/109/92
f 124/59/92 75/110/92 77/107/92
f 124/59/92 81/109/92 83/111/92
f 124/59/92 89/112/92 75/110/92
f 124/59/92 83/111/92 89/112/92
